<?xml version="1.0" encoding="iso-8859-1"?>
<!-- Generator: Adobe Illustrator 19.0.0, SVG Export Plug-In . SVG Version: 6.00 Build 0)  -->
<svg version="1.1" id="Capa_1" xmlns="http://www.w3.org/2000/svg" xmlns:xlink="http://www.w3.org/1999/xlink" x="0px" y="0px"
	 viewBox="0 0 512 512" style="enable-background:new 0 0 512 512;" xml:space="preserve">
<circle style="fill:#FF6838;" cx="256" cy="256" r="256"/>
<path style="fill:#AE4E32;" d="M256,512c141.385,0,256-114.615,256-256c0-2.627-0.052-5.242-0.131-7.851l-78.08-78.08l-26.89,39.255
	l-28.511-28.511l-29.611,19.595l43.782,43.782l-8.476,8.476l-82.597-82.598l-38.426,27.618l-18.75-18.75l-24.163,25.69
	l48.488,48.488l-15.078,1.328l-84.374-84.374l-36.529,29.626l-18.81-18.81l-28.226,21.37l31.066,31.065l-31.066,12.216
	l27.176,27.176l-25.09,18.336l26.665,26.665l-25.626,17.582l34.953,34.953v104.95C162.307,498.554,207.582,512,256,512z"/>
<path style="fill:#FFDC00;" d="M270.181,213.349c17.289,0,31.304-14.015,31.304-31.304V170.07H289.51
	c-17.289,0-31.304,14.015-31.304,31.304v0.444h-4.412v-0.444c0-17.289-14.015-31.304-31.304-31.304h-11.975v11.975
	c0,17.289,14.015,31.304,31.304,31.304h10.137v20.722c-4.339-12.08-15.892-20.722-29.466-20.722h-11.975v11.975
	c0,17.289,14.015,31.304,31.304,31.304h10.137v20.722c-4.339-12.08-15.892-20.722-29.466-20.722h-11.975v11.975
	c0,17.289,14.015,31.304,31.304,31.304h10.137v20.722c-4.339-12.08-15.892-20.722-29.466-20.722h-11.975v11.975
	c0,17.289,14.015,31.304,31.304,31.304h10.137v58.755c1.344,0.039,2.691,0.064,4.044,0.064c1.353,0,2.701-0.025,4.044-0.064v-58.755
	h10.137c17.289,0,31.304-14.015,31.304-31.304v-11.975H289.51c-13.574,0-25.127,8.641-29.466,20.722v-20.722h10.137
	c17.289,0,31.304-14.015,31.304-31.304v-11.975H289.51c-13.574,0-25.127,8.641-29.466,20.722v-20.722h10.137
	c17.289,0,31.304-14.015,31.304-31.304v-11.975H289.51c-13.574,0-25.127,8.641-29.466,20.722v-20.722L270.181,213.349
	L270.181,213.349z"/>
<path style="fill:#FFC000;" d="M270.181,213.349c17.289,0,31.304-14.015,31.304-31.304v-11.976H289.51
	c-17.289,0-31.304,14.015-31.304,31.304v0.445H256v200.189c1.353,0,2.701-0.025,4.044-0.064v-58.755h10.137
	c17.289,0,31.304-14.015,31.304-31.304v-11.976H289.51c-13.574,0-25.127,8.642-29.466,20.722v-20.722h10.137
	c17.289,0,31.304-14.015,31.304-31.304v-11.975H289.51c-13.574,0-25.127,8.641-29.466,20.722v-20.722h10.137
	c17.289,0,31.304-14.016,31.304-31.304V213.35H289.51c-13.574,0-25.127,8.641-29.466,20.722V213.35h10.137V213.349z"/>
<path style="fill:#FFDC00;" d="M137.878,213.349c17.289,0,31.304-14.015,31.304-31.304V170.07h-11.975
	c-17.289,0-31.304,14.015-31.304,31.304v0.444h-4.412v-0.444c0-17.289-14.015-31.304-31.304-31.304H78.211v11.975
	c0,17.289,14.015,31.304,31.304,31.304h10.137v20.722c-4.339-12.08-15.892-20.722-29.466-20.722H78.211v11.975
	c0,17.289,14.015,31.304,31.304,31.304h10.137v20.722c-4.339-12.08-15.892-20.722-29.466-20.722H78.211v11.975
	c0,17.289,14.015,31.304,31.304,31.304h10.137v20.722c-4.339-12.08-15.892-20.722-29.466-20.722H78.211v11.975
	c0,17.289,14.015,31.304,31.304,31.304h10.137v58.755c1.344,0.039,2.691,0.064,4.044,0.064s2.701-0.025,4.044-0.064v-58.755h10.137
	c17.289,0,31.304-14.015,31.304-31.304v-11.975h-11.975c-13.574,0-25.127,8.641-29.466,20.722v-20.722h10.137
	c17.289,0,31.304-14.015,31.304-31.304v-11.975h-11.975c-13.574,0-25.127,8.641-29.466,20.722v-20.722h10.137
	c17.289,0,31.304-14.015,31.304-31.304v-11.975h-11.975c-13.574,0-25.127,8.641-29.466,20.722v-20.722L137.878,213.349
	L137.878,213.349z"/>
<path style="fill:#FFC000;" d="M402.485,213.349c17.289,0,31.304-14.015,31.304-31.304V170.07h-11.975
	c-17.289,0-31.304,14.015-31.304,31.304v0.444h-4.412v-0.444c0-17.289-14.015-31.304-31.304-31.304h-11.975v11.975
	c0,17.289,14.015,31.304,31.304,31.304h10.137v20.722c-4.339-12.08-15.892-20.722-29.466-20.722h-11.975v11.975
	c0,17.289,14.015,31.304,31.304,31.304h10.137v20.722c-4.339-12.08-15.892-20.722-29.466-20.722h-11.975v11.975
	c0,17.289,14.015,31.304,31.304,31.304h10.137v20.722c-4.339-12.08-15.892-20.722-29.466-20.722h-11.975v11.975
	c0,17.289,14.015,31.304,31.304,31.304h10.137v58.755c1.344,0.039,2.691,0.064,4.044,0.064s2.701-0.025,4.044-0.064v-58.755h10.137
	c17.289,0,31.304-14.015,31.304-31.304v-11.975h-11.975c-13.574,0-25.127,8.641-29.466,20.722v-20.722h10.137
	c17.289,0,31.304-14.015,31.304-31.304v-11.975h-11.975c-13.574,0-25.127,8.641-29.466,20.722v-20.722h10.137
	c17.289,0,31.304-14.015,31.304-31.304v-11.975h-11.975c-13.574,0-25.127,8.641-29.466,20.722v-20.722L402.485,213.349
	L402.485,213.349z"/>
<path style="fill:#FFB344;" d="M32.934,381.667C76.857,459.465,160.287,512,256,512s179.143-52.535,223.066-130.333H32.934z"/>
<path style="fill:#FF9451;" d="M256,381.667V512c95.713,0,179.143-52.535,223.066-130.333H256z"/>
<g>
</g>
<g>
</g>
<g>
</g>
<g>
</g>
<g>
</g>
<g>
</g>
<g>
</g>
<g>
</g>
<g>
</g>
<g>
</g>
<g>
</g>
<g>
</g>
<g>
</g>
<g>
</g>
<g>
</g>
</svg>
